# xmcd CD database file
#
# Track frame offsets:
#	150
#	17027
#	35865
#	48562
#	66540
#	78130
#	97497
#	111267
#	128150
#	144555
#	161027
#	177530
#	191140
#	202767
#	216695
#
# Disc length: 3081 seconds
#
# Revision: 0
# Processed by: cddbd v1.4PL0 Copyright (c) Steve Scherf et al.
# Submitted via: CDex 1.50
#
DISCID=f00c070f
DTITLE=Steve Young - Seven Bridges Road
DYEAR=1992
DGENRE=Country
TTITLE0=Seven Bridges Road
TTITLE1=Montgomery In The Rain
TTITLE2=Ragtime Blues Guitar
TTITLE3=Long Way To Hollywood
TTITLE4=Down In The Flood
TTITLE5=Ballad Of William Sycamore
TTITLE6=My Oklahoma
TTITLE7=Wild Goose
TTITLE8=Days Of 49
TTITLE9=Lonesome On'ry And Mean
TTITLE10=Call Me Up In Dreamland
TTITLE11=Come Sit By My Side
TTITLE12=Crash On The Levy
TTITLE13=White Trash Song (L.A. Version)
TTITLE14=White Trash Song (Nashville Version)
EXTD=YEAR: 1992
EXTT0=
EXTT1=
EXTT2=
EXTT3=
EXTT4=
EXTT5=
EXTT6=
EXTT7=
EXTT8=
EXTT9=
EXTT10=
EXTT11=
EXTT12=
EXTT13=
EXTT14=
PLAYORDER=
